# xmcd
#
# Track frame offsets:
#	150
#	15142
#	26634
#	41290
#	56646
#	70882
#	80330
#	91850
#	106002
#	119594
#	129658
#	151930
#
# Disc length: 2213 seconds
#
# Revision: 0
# Processed by: cddbd v1.5.2PL0 Copyright (c) Steve Scherf et al.
# Submitted via: EasyCDDAExtractor 12.0.1.1
#
DISCID=8808a30c
DTITLE=ILA AUTO
DYEAR=2010
DGENRE=Bluegrass
TTITLE0=CREEDENCE PÅ KASSETT
TTITLE1=REGN OG SNØ
TTITLE2=EN SOM BLIR IGJEN
TTITLE3=ALLE DØR, MEN IKKE ALLE LEVER
TTITLE4=GRØNLAND
TTITLE5=SLAKT
TTITLE6=FEM MIL UNNA
TTITLE7=FAGERBORG
TTITLE8=IKKE MERE TID
TTITLE9=FÅ MEG HJEM
TTITLE10=NÅ KOMMER NATTA
TTITLE11=INGENTING IGJEN
EXTD=
EXTT0=
EXTT1=
EXTT2=
EXTT3=
EXTT4=
EXTT5=
EXTT6=
EXTT7=
EXTT8=
EXTT9=
EXTT10=
EXTT11=
PLAYORDER=
